<svg width="1440" height="266" viewBox="0 0 1440 266" fill="none" xmlns="http://www.w3.org/2000/svg">
<rect width="1440" height="266" fill="#01AEE7"/>
<line x1="605" y1="47.25" x2="835" y2="47.25" stroke="#FFF500" stroke-width="1.5"/>
<line x1="605" y1="223.25" x2="835" y2="223.25" stroke="#FFF500" stroke-width="1.5"/>
<path d="M456.598 102V82.12H448.758V77.5H470.108V82.12H462.268V102H456.598ZM473.158 102V77.5H483.763C485.957 77.5 487.847 77.8617 489.433 78.585C491.02 79.285 492.245 80.3 493.108 81.63C493.972 82.96 494.403 84.5467 494.403 86.39C494.403 88.21 493.972 89.785 493.108 91.115C492.245 92.4217 491.02 93.425 489.433 94.125C487.847 94.825 485.957 95.175 483.763 95.175H476.308L478.828 92.69V102H473.158ZM488.733 102L482.608 93.11H488.663L494.858 102H488.733ZM478.828 93.32L476.308 90.66H483.448C485.198 90.66 486.505 90.2867 487.368 89.54C488.232 88.77 488.663 87.72 488.663 86.39C488.663 85.0367 488.232 83.9867 487.368 83.24C486.505 82.4933 485.198 82.12 483.448 82.12H476.308L478.828 79.425V93.32ZM509.781 102.42C506.304 102.42 503.586 101.452 501.626 99.515C499.666 97.5783 498.686 94.8133 498.686 91.22V77.5H504.356V91.01C504.356 93.3433 504.834 95.0233 505.791 96.05C506.747 97.0767 508.089 97.59 509.816 97.59C511.542 97.59 512.884 97.0767 513.841 96.05C514.797 95.0233 515.276 93.3433 515.276 91.01V77.5H520.876V91.22C520.876 94.8133 519.896 97.5783 517.936 99.515C515.976 101.452 513.257 102.42 509.781 102.42ZM531.694 87.37H543.489V91.78H531.694V87.37ZM532.114 97.45H545.449V102H526.479V77.5H544.994V82.05H532.114V97.45ZM558.787 94.335V89.96H568.692V94.335H558.787ZM583.425 102V77.5H594.835C597.682 77.5 599.899 78.0483 601.485 79.145C603.072 80.2417 603.865 81.805 603.865 83.835C603.865 85.8417 603.119 87.405 601.625 88.525C600.132 89.6217 598.149 90.17 595.675 90.17L596.34 88.7C599.094 88.7 601.229 89.2483 602.745 90.345C604.262 91.4417 605.02 93.0283 605.02 95.105C605.02 97.2517 604.204 98.9433 602.57 100.18C600.96 101.393 598.604 102 595.5 102H583.425ZM589.06 97.8H595.29C596.597 97.8 597.589 97.5433 598.265 97.03C598.942 96.5167 599.28 95.7233 599.28 94.65C599.28 93.6233 598.942 92.865 598.265 92.375C597.589 91.8617 596.597 91.605 595.29 91.605H589.06V97.8ZM589.06 87.65H594.345C595.582 87.65 596.515 87.405 597.145 86.915C597.775 86.4017 598.09 85.655 598.09 84.675C598.09 83.695 597.775 82.96 597.145 82.47C596.515 81.9567 595.582 81.7 594.345 81.7H589.06V87.65ZM614.719 87.37H626.514V91.78H614.719V87.37ZM615.139 97.45H628.474V102H609.504V77.5H628.019V82.05H615.139V97.45ZM649.294 99.48V82.12H640.894L640.789 85.69C640.719 87.2067 640.614 88.6417 640.474 89.995C640.358 91.3483 640.171 92.585 639.914 93.705C639.658 94.8017 639.319 95.735 638.899 96.505C638.503 97.275 638.001 97.8233 637.394 98.15L631.339 97.38C632.179 97.4033 632.868 97.1117 633.404 96.505C633.964 95.8983 634.408 95.0467 634.734 93.95C635.061 92.83 635.294 91.5233 635.434 90.03C635.598 88.5367 635.714 86.915 635.784 85.165L636.064 77.5H654.894V99.48H649.294ZM630.534 107.075L630.569 97.38H658.324V107.075H653.074V102H635.784V107.075H630.534ZM662.981 97.38C664.335 97.7767 665.466 97.8933 666.376 97.73C667.31 97.5433 668.138 96.89 668.861 95.77L670.051 93.985L670.576 93.39L678.696 77.5H684.261L673.831 96.89C672.898 98.64 671.79 99.9817 670.506 100.915C669.246 101.848 667.858 102.373 666.341 102.49C664.825 102.63 663.25 102.362 661.616 101.685L662.981 97.38ZM670.471 98.115L659.411 77.5H665.466L673.586 93.95L670.471 98.115ZM701.586 97.38L700.326 98.675V77.5H705.961V98.675L704.631 97.38H714.991L713.661 98.675V77.5H719.296V102H686.956V77.5H692.591V98.675L691.296 97.38H701.586ZM717.371 107.075V100.67L718.701 102H713.556V97.38H722.621V107.075H717.371ZM726.502 102V77.5H732.137V93.46L743.827 77.5H749.147V102H743.547V86.075L731.857 102H726.502ZM755.247 102V77.5H760.882V93.46L772.572 77.5H777.892V102H772.292V86.075L760.602 102H755.247ZM766.552 75.925C764.218 75.925 762.503 75.4583 761.407 74.525C760.333 73.5917 759.785 72.2733 759.762 70.57H763.647C763.67 71.41 763.915 72.0517 764.382 72.495C764.872 72.915 765.595 73.125 766.552 73.125C767.485 73.125 768.197 72.915 768.687 72.495C769.177 72.0517 769.433 71.41 769.457 70.57H773.342C773.318 72.2733 772.758 73.5917 771.662 74.525C770.565 75.4583 768.862 75.925 766.552 75.925ZM793.904 102V77.5H798.594L809.024 94.79H806.539L816.794 77.5H821.484L821.519 102H816.199L816.164 85.655H817.179L808.954 99.41H806.434L798.034 85.655H799.224V102H793.904ZM827.605 102V77.5H833.24V93.46L844.93 77.5H850.25V102H844.65V86.075L832.96 102H827.605ZM856.35 102V77.5H866.955C869.149 77.5 871.039 77.8617 872.625 78.585C874.212 79.285 875.437 80.3 876.3 81.63C877.164 82.96 877.595 84.5467 877.595 86.39C877.595 88.21 877.164 89.785 876.3 91.115C875.437 92.445 874.212 93.4717 872.625 94.195C871.039 94.895 869.149 95.245 866.955 95.245H859.5L862.02 92.69V102H856.35ZM862.02 93.32L859.5 90.625H866.64C868.39 90.625 869.697 90.2517 870.56 89.505C871.424 88.7583 871.855 87.72 871.855 86.39C871.855 85.0367 871.424 83.9867 870.56 83.24C869.697 82.4933 868.39 82.12 866.64 82.12H859.5L862.02 79.425V93.32ZM893.402 102.42C891.466 102.42 889.669 102.105 888.012 101.475C886.379 100.845 884.956 99.9583 883.742 98.815C882.552 97.6717 881.619 96.33 880.942 94.79C880.289 93.25 879.962 91.57 879.962 89.75C879.962 87.93 880.289 86.25 880.942 84.71C881.619 83.17 882.564 81.8283 883.777 80.685C884.991 79.5417 886.414 78.655 888.047 78.025C889.681 77.395 891.454 77.08 893.367 77.08C895.304 77.08 897.077 77.395 898.687 78.025C900.321 78.655 901.732 79.5417 902.922 80.685C904.136 81.8283 905.081 83.17 905.757 84.71C906.434 86.2267 906.772 87.9067 906.772 89.75C906.772 91.57 906.434 93.2617 905.757 94.825C905.081 96.365 904.136 97.7067 902.922 98.85C901.732 99.97 900.321 100.845 898.687 101.475C897.077 102.105 895.316 102.42 893.402 102.42ZM893.367 97.59C894.464 97.59 895.467 97.4033 896.377 97.03C897.311 96.6567 898.127 96.12 898.827 95.42C899.527 94.72 900.064 93.8917 900.437 92.935C900.834 91.9783 901.032 90.9167 901.032 89.75C901.032 88.5833 900.834 87.5217 900.437 86.565C900.064 85.6083 899.527 84.78 898.827 84.08C898.151 83.38 897.346 82.8433 896.412 82.47C895.479 82.0967 894.464 81.91 893.367 81.91C892.271 81.91 891.256 82.0967 890.322 82.47C889.412 82.8433 888.607 83.38 887.907 84.08C887.207 84.78 886.659 85.6083 886.262 86.565C885.889 87.5217 885.702 88.5833 885.702 89.75C885.702 90.8933 885.889 91.955 886.262 92.935C886.659 93.8917 887.196 94.72 887.872 95.42C888.572 96.12 889.389 96.6567 890.322 97.03C891.256 97.4033 892.271 97.59 893.367 97.59ZM911.14 102V77.5H922.55C925.397 77.5 927.614 78.0483 929.2 79.145C930.787 80.2417 931.58 81.805 931.58 83.835C931.58 85.8417 930.834 87.405 929.34 88.525C927.847 89.6217 925.864 90.17 923.39 90.17L924.055 88.7C926.809 88.7 928.944 89.2483 930.46 90.345C931.977 91.4417 932.735 93.0283 932.735 95.105C932.735 97.2517 931.919 98.9433 930.285 100.18C928.675 101.393 926.319 102 923.215 102H911.14ZM916.775 97.8H923.005C924.312 97.8 925.304 97.5433 925.98 97.03C926.657 96.5167 926.995 95.7233 926.995 94.65C926.995 93.6233 926.657 92.865 925.98 92.375C925.304 91.8617 924.312 91.605 923.005 91.605H916.775V97.8ZM916.775 87.65H922.06C923.297 87.65 924.23 87.405 924.86 86.915C925.49 86.4017 925.805 85.655 925.805 84.675C925.805 83.695 925.49 82.96 924.86 82.47C924.23 81.9567 923.297 81.7 922.06 81.7H916.775V87.65ZM948.944 102.42C947.008 102.42 945.211 102.105 943.554 101.475C941.921 100.845 940.498 99.9583 939.284 98.815C938.094 97.6717 937.161 96.33 936.484 94.79C935.831 93.25 935.504 91.57 935.504 89.75C935.504 87.93 935.831 86.25 936.484 84.71C937.161 83.17 938.106 81.8283 939.319 80.685C940.533 79.5417 941.956 78.655 943.589 78.025C945.223 77.395 946.996 77.08 948.909 77.08C950.846 77.08 952.619 77.395 954.229 78.025C955.863 78.655 957.274 79.5417 958.464 80.685C959.678 81.8283 960.623 83.17 961.299 84.71C961.976 86.2267 962.314 87.9067 962.314 89.75C962.314 91.57 961.976 93.2617 961.299 94.825C960.623 96.365 959.678 97.7067 958.464 98.85C957.274 99.97 955.863 100.845 954.229 101.475C952.619 102.105 950.858 102.42 948.944 102.42ZM948.909 97.59C950.006 97.59 951.009 97.4033 951.919 97.03C952.853 96.6567 953.669 96.12 954.369 95.42C955.069 94.72 955.606 93.8917 955.979 92.935C956.376 91.9783 956.574 90.9167 956.574 89.75C956.574 88.5833 956.376 87.5217 955.979 86.565C955.606 85.6083 955.069 84.78 954.369 84.08C953.693 83.38 952.888 82.8433 951.954 82.47C951.021 82.0967 950.006 81.91 948.909 81.91C947.813 81.91 946.798 82.0967 945.864 82.47C944.954 82.8433 944.149 83.38 943.449 84.08C942.749 84.78 942.201 85.6083 941.804 86.565C941.431 87.5217 941.244 88.5833 941.244 89.75C941.244 90.8933 941.431 91.955 941.804 92.935C942.201 93.8917 942.738 94.72 943.414 95.42C944.114 96.12 944.931 96.6567 945.864 97.03C946.798 97.4033 947.813 97.59 948.909 97.59ZM966.682 102V77.5H972.317V93.46L984.007 77.5H989.327V102H983.727V86.075L972.037 102H966.682ZM977.987 75.925C975.654 75.925 973.939 75.4583 972.842 74.525C971.769 73.5917 971.221 72.2733 971.197 70.57H975.082C975.106 71.41 975.351 72.0517 975.817 72.495C976.307 72.915 977.031 73.125 977.987 73.125C978.921 73.125 979.632 72.915 980.122 72.495C980.612 72.0517 980.869 71.41 980.892 70.57H984.777C984.754 72.2733 984.194 73.5917 983.097 74.525C982.001 75.4583 980.297 75.925 977.987 75.925ZM296.179 145V120.5H318.509V145H312.874V123.825L314.169 125.12H300.519L301.814 123.825V145H296.179ZM324.583 145V120.5H335.188C337.381 120.5 339.271 120.862 340.858 121.585C342.444 122.285 343.669 123.3 344.533 124.63C345.396 125.96 345.828 127.547 345.828 129.39C345.828 131.21 345.396 132.785 344.533 134.115C343.669 135.445 342.444 136.472 340.858 137.195C339.271 137.895 337.381 138.245 335.188 138.245H327.733L330.253 135.69V145H324.583ZM330.253 136.32L327.733 133.625H334.873C336.623 133.625 337.929 133.252 338.793 132.505C339.656 131.758 340.088 130.72 340.088 129.39C340.088 128.037 339.656 126.987 338.793 126.24C337.929 125.493 336.623 125.12 334.873 125.12H327.733L330.253 122.425V136.32ZM361.635 145.42C359.698 145.42 357.901 145.105 356.245 144.475C354.611 143.845 353.188 142.958 351.975 141.815C350.785 140.672 349.851 139.33 349.175 137.79C348.521 136.25 348.195 134.57 348.195 132.75C348.195 130.93 348.521 129.25 349.175 127.71C349.851 126.17 350.796 124.828 352.01 123.685C353.223 122.542 354.646 121.655 356.28 121.025C357.913 120.395 359.686 120.08 361.6 120.08C363.536 120.08 365.31 120.395 366.92 121.025C368.553 121.655 369.965 122.542 371.155 123.685C372.368 124.828 373.313 126.17 373.99 127.71C374.666 129.227 375.005 130.907 375.005 132.75C375.005 134.57 374.666 136.262 373.99 137.825C373.313 139.365 372.368 140.707 371.155 141.85C369.965 142.97 368.553 143.845 366.92 144.475C365.31 145.105 363.548 145.42 361.635 145.42ZM361.6 140.59C362.696 140.59 363.7 140.403 364.61 140.03C365.543 139.657 366.36 139.12 367.06 138.42C367.76 137.72 368.296 136.892 368.67 135.935C369.066 134.978 369.265 133.917 369.265 132.75C369.265 131.583 369.066 130.522 368.67 129.565C368.296 128.608 367.76 127.78 367.06 127.08C366.383 126.38 365.578 125.843 364.645 125.47C363.711 125.097 362.696 124.91 361.6 124.91C360.503 124.91 359.488 125.097 358.555 125.47C357.645 125.843 356.84 126.38 356.14 127.08C355.44 127.78 354.891 128.608 354.495 129.565C354.121 130.522 353.935 131.583 353.935 132.75C353.935 133.893 354.121 134.955 354.495 135.935C354.891 136.892 355.428 137.72 356.105 138.42C356.805 139.12 357.621 139.657 358.555 140.03C359.488 140.403 360.503 140.59 361.6 140.59ZM379.373 145V120.5H385.008V136.46L396.698 120.5H402.018V145H396.418V129.075L384.728 145H379.373ZM405.913 142.83L407.663 138.77C408.713 139.4 409.833 139.89 411.023 140.24C412.236 140.567 413.414 140.753 414.558 140.8C415.724 140.823 416.774 140.707 417.708 140.45C418.664 140.193 419.423 139.808 419.983 139.295C420.566 138.782 420.858 138.128 420.858 137.335C420.858 136.402 420.473 135.713 419.703 135.27C418.933 134.803 417.906 134.57 416.623 134.57H410.638V130.3H416.203C417.346 130.3 418.233 130.067 418.863 129.6C419.516 129.133 419.843 128.492 419.843 127.675C419.843 126.975 419.609 126.415 419.143 125.995C418.676 125.552 418.034 125.225 417.218 125.015C416.424 124.805 415.526 124.712 414.523 124.735C413.519 124.758 412.481 124.922 411.408 125.225C410.334 125.528 409.308 125.948 408.328 126.485L406.613 122.11C408.199 121.293 409.868 120.733 411.618 120.43C413.391 120.103 415.094 120.022 416.728 120.185C418.384 120.325 419.878 120.698 421.208 121.305C422.538 121.888 423.599 122.658 424.393 123.615C425.186 124.572 425.583 125.703 425.583 127.01C425.583 128.177 425.279 129.215 424.673 130.125C424.066 131.035 423.214 131.735 422.118 132.225C421.044 132.715 419.808 132.96 418.408 132.96L418.548 131.7C420.181 131.7 421.593 131.98 422.783 132.54C423.996 133.077 424.929 133.835 425.583 134.815C426.259 135.772 426.598 136.88 426.598 138.14C426.598 139.307 426.283 140.357 425.653 141.29C425.046 142.2 424.206 142.97 423.133 143.6C422.059 144.23 420.834 144.697 419.458 145C418.081 145.303 416.611 145.432 415.048 145.385C413.508 145.338 411.956 145.117 410.393 144.72C408.829 144.3 407.336 143.67 405.913 142.83ZM431.087 145V120.5H442.497C445.343 120.5 447.56 121.048 449.147 122.145C450.733 123.242 451.527 124.805 451.527 126.835C451.527 128.842 450.78 130.405 449.287 131.525C447.793 132.622 445.81 133.17 443.337 133.17L444.002 131.7C446.755 131.7 448.89 132.248 450.407 133.345C451.923 134.442 452.682 136.028 452.682 138.105C452.682 140.252 451.865 141.943 450.232 143.18C448.622 144.393 446.265 145 443.162 145H431.087ZM436.722 140.8H442.952C444.258 140.8 445.25 140.543 445.927 140.03C446.603 139.517 446.942 138.723 446.942 137.65C446.942 136.623 446.603 135.865 445.927 135.375C445.25 134.862 444.258 134.605 442.952 134.605H436.722V140.8ZM436.722 130.65H442.007C443.243 130.65 444.177 130.405 444.807 129.915C445.437 129.402 445.752 128.655 445.752 127.675C445.752 126.695 445.437 125.96 444.807 125.47C444.177 124.957 443.243 124.7 442.007 124.7H436.722V130.65ZM468.891 145.42C466.954 145.42 465.157 145.105 463.501 144.475C461.867 143.845 460.444 142.958 459.231 141.815C458.041 140.672 457.107 139.33 456.431 137.79C455.777 136.25 455.451 134.57 455.451 132.75C455.451 130.93 455.777 129.25 456.431 127.71C457.107 126.17 458.052 124.828 459.266 123.685C460.479 122.542 461.902 121.655 463.536 121.025C465.169 120.395 466.942 120.08 468.856 120.08C470.792 120.08 472.566 120.395 474.176 121.025C475.809 121.655 477.221 122.542 478.411 123.685C479.624 124.828 480.569 126.17 481.246 127.71C481.922 129.227 482.261 130.907 482.261 132.75C482.261 134.57 481.922 136.262 481.246 137.825C480.569 139.365 479.624 140.707 478.411 141.85C477.221 142.97 475.809 143.845 474.176 144.475C472.566 145.105 470.804 145.42 468.891 145.42ZM468.856 140.59C469.952 140.59 470.956 140.403 471.866 140.03C472.799 139.657 473.616 139.12 474.316 138.42C475.016 137.72 475.552 136.892 475.926 135.935C476.322 134.978 476.521 133.917 476.521 132.75C476.521 131.583 476.322 130.522 475.926 129.565C475.552 128.608 475.016 127.78 474.316 127.08C473.639 126.38 472.834 125.843 471.901 125.47C470.967 125.097 469.952 124.91 468.856 124.91C467.759 124.91 466.744 125.097 465.811 125.47C464.901 125.843 464.096 126.38 463.396 127.08C462.696 127.78 462.147 128.608 461.751 129.565C461.377 130.522 461.191 131.583 461.191 132.75C461.191 133.893 461.377 134.955 461.751 135.935C462.147 136.892 462.684 137.72 463.361 138.42C464.061 139.12 464.877 139.657 465.811 140.03C466.744 140.403 467.759 140.59 468.856 140.59ZM502.185 142.48V125.12H493.785L493.68 128.69C493.61 130.207 493.505 131.642 493.365 132.995C493.248 134.348 493.062 135.585 492.805 136.705C492.548 137.802 492.21 138.735 491.79 139.505C491.393 140.275 490.892 140.823 490.285 141.15L484.23 140.38C485.07 140.403 485.758 140.112 486.295 139.505C486.855 138.898 487.298 138.047 487.625 136.95C487.952 135.83 488.185 134.523 488.325 133.03C488.488 131.537 488.605 129.915 488.675 128.165L488.955 120.5H507.785V142.48H502.185ZM483.425 150.075L483.46 140.38H511.215V150.075H505.965V145H488.675V150.075H483.425ZM515.032 145V120.5H520.667V136.46L532.357 120.5H537.677V145H532.077V129.075L520.387 145H515.032ZM549.062 145V123.825L550.357 125.12H541.257V120.5H562.502V125.12H553.402L554.662 123.825V145H549.062ZM571.277 130.37H583.072V134.78H571.277V130.37ZM571.697 140.45H585.032V145H566.062V120.5H584.577V125.05H571.697V140.45ZM589.857 145.385C589.437 145.385 588.994 145.35 588.527 145.28C588.084 145.21 587.594 145.117 587.057 145L587.407 140.205C587.734 140.298 588.072 140.345 588.422 140.345C589.379 140.345 590.125 139.96 590.662 139.19C591.199 138.397 591.584 137.265 591.817 135.795C592.05 134.325 592.202 132.54 592.272 130.44L592.622 120.5H611.452V145H605.852V123.825L607.147 125.12H596.332L597.487 123.755L597.277 130.23C597.207 132.633 597.044 134.768 596.787 136.635C596.53 138.502 596.134 140.088 595.597 141.395C595.06 142.702 594.325 143.693 593.392 144.37C592.459 145.047 591.28 145.385 589.857 145.385ZM629.436 128.55C632.399 128.55 634.686 129.215 636.296 130.545C637.906 131.852 638.711 133.823 638.711 136.46C638.711 139.26 637.813 141.383 636.016 142.83C634.243 144.277 631.781 145 628.631 145H617.571V120.5H623.206V128.55H629.436ZM628.316 140.8C629.763 140.8 630.906 140.438 631.746 139.715C632.586 138.992 633.006 137.942 633.006 136.565C633.006 135.212 632.586 134.243 631.746 133.66C630.929 133.053 629.786 132.75 628.316 132.75H623.206V140.8H628.316ZM652.708 145V120.5H675.038V145H669.403V123.825L670.698 125.12H657.048L658.343 123.825V145H652.708ZM681.111 145V120.5H691.716C693.909 120.5 695.799 120.862 697.386 121.585C698.973 122.285 700.198 123.3 701.061 124.63C701.924 125.96 702.356 127.547 702.356 129.39C702.356 131.21 701.924 132.785 701.061 134.115C700.198 135.445 698.973 136.472 697.386 137.195C695.799 137.895 693.909 138.245 691.716 138.245H684.261L686.781 135.69V145H681.111ZM686.781 136.32L684.261 133.625H691.401C693.151 133.625 694.458 133.252 695.321 132.505C696.184 131.758 696.616 130.72 696.616 129.39C696.616 128.037 696.184 126.987 695.321 126.24C694.458 125.493 693.151 125.12 691.401 125.12H684.261L686.781 122.425V136.32ZM711.311 130.37H723.106V134.78H711.311V130.37ZM711.731 140.45H725.066V145H706.096V120.5H724.611V125.05H711.731V140.45ZM729.646 145V120.5H734.336L744.766 137.79H742.281L752.536 120.5H757.226L757.261 145H751.941L751.906 128.655H752.921L744.696 142.41H742.176L733.776 128.655H734.966V145H729.646ZM763.347 145V120.5H768.982V136.46L780.672 120.5H785.992V145H780.392V129.075L768.702 145H763.347ZM789.327 145L800.247 120.5H805.847L816.802 145H810.852L801.892 123.37H804.132L795.137 145H789.327ZM794.787 139.75L796.292 135.445H808.892L810.432 139.75H794.787ZM820.433 145.385C820.013 145.385 819.57 145.35 819.103 145.28C818.66 145.21 818.17 145.117 817.633 145L817.983 140.205C818.31 140.298 818.648 140.345 818.998 140.345C819.955 140.345 820.701 139.96 821.238 139.19C821.775 138.397 822.16 137.265 822.393 135.795C822.626 134.325 822.778 132.54 822.848 130.44L823.198 120.5H842.028V145H836.428V123.825L837.723 125.12H826.908L828.063 123.755L827.853 130.23C827.783 132.633 827.62 134.768 827.363 136.635C827.106 138.502 826.71 140.088 826.173 141.395C825.636 142.702 824.901 143.693 823.968 144.37C823.035 145.047 821.856 145.385 820.433 145.385ZM860.012 128.55C862.975 128.55 865.262 129.215 866.872 130.545C868.482 131.852 869.287 133.823 869.287 136.46C869.287 139.26 868.389 141.383 866.592 142.83C864.819 144.277 862.357 145 859.207 145H848.147V120.5H853.782V128.55H860.012ZM858.892 140.8C860.339 140.8 861.482 140.438 862.322 139.715C863.162 138.992 863.582 137.942 863.582 136.565C863.582 135.212 863.162 134.243 862.322 133.66C861.505 133.053 860.362 132.75 858.892 132.75H853.782V140.8H858.892ZM890.172 120.5H895.842V145H890.172V120.5ZM879.042 145H873.372V120.5H879.042V145ZM890.592 134.955H878.622V130.16H890.592V134.955ZM913.705 145.42C911.768 145.42 909.972 145.105 908.315 144.475C906.682 143.845 905.258 142.958 904.045 141.815C902.855 140.672 901.922 139.33 901.245 137.79C900.592 136.25 900.265 134.57 900.265 132.75C900.265 130.93 900.592 129.25 901.245 127.71C901.922 126.17 902.867 124.828 904.08 123.685C905.293 122.542 906.717 121.655 908.35 121.025C909.983 120.395 911.757 120.08 913.67 120.08C915.607 120.08 917.38 120.395 918.99 121.025C920.623 121.655 922.035 122.542 923.225 123.685C924.438 124.828 925.383 126.17 926.06 127.71C926.737 129.227 927.075 130.907 927.075 132.75C927.075 134.57 926.737 136.262 926.06 137.825C925.383 139.365 924.438 140.707 923.225 141.85C922.035 142.97 920.623 143.845 918.99 144.475C917.38 145.105 915.618 145.42 913.705 145.42ZM913.67 140.59C914.767 140.59 915.77 140.403 916.68 140.03C917.613 139.657 918.43 139.12 919.13 138.42C919.83 137.72 920.367 136.892 920.74 135.935C921.137 134.978 921.335 133.917 921.335 132.75C921.335 131.583 921.137 130.522 920.74 129.565C920.367 128.608 919.83 127.78 919.13 127.08C918.453 126.38 917.648 125.843 916.715 125.47C915.782 125.097 914.767 124.91 913.67 124.91C912.573 124.91 911.558 125.097 910.625 125.47C909.715 125.843 908.91 126.38 908.21 127.08C907.51 127.78 906.962 128.608 906.565 129.565C906.192 130.522 906.005 131.583 906.005 132.75C906.005 133.893 906.192 134.955 906.565 135.935C906.962 136.892 907.498 137.72 908.175 138.42C908.875 139.12 909.692 139.657 910.625 140.03C911.558 140.403 912.573 140.59 913.67 140.59ZM931.443 145V120.5H948.733L948.698 125.12H935.748L937.043 123.825L937.078 145H931.443ZM961.42 145.42C959.483 145.42 957.687 145.105 956.03 144.475C954.397 143.845 952.973 142.958 951.76 141.815C950.57 140.672 949.637 139.33 948.96 137.79C948.307 136.25 947.98 134.57 947.98 132.75C947.98 130.93 948.307 129.25 948.96 127.71C949.637 126.17 950.582 124.828 951.795 123.685C953.008 122.542 954.432 121.655 956.065 121.025C957.698 120.395 959.472 120.08 961.385 120.08C963.322 120.08 965.095 120.395 966.705 121.025C968.338 121.655 969.75 122.542 970.94 123.685C972.153 124.828 973.098 126.17 973.775 127.71C974.452 129.227 974.79 130.907 974.79 132.75C974.79 134.57 974.452 136.262 973.775 137.825C973.098 139.365 972.153 140.707 970.94 141.85C969.75 142.97 968.338 143.845 966.705 144.475C965.095 145.105 963.333 145.42 961.42 145.42ZM961.385 140.59C962.482 140.59 963.485 140.403 964.395 140.03C965.328 139.657 966.145 139.12 966.845 138.42C967.545 137.72 968.082 136.892 968.455 135.935C968.852 134.978 969.05 133.917 969.05 132.75C969.05 131.583 968.852 130.522 968.455 129.565C968.082 128.608 967.545 127.78 966.845 127.08C966.168 126.38 965.363 125.843 964.43 125.47C963.497 125.097 962.482 124.91 961.385 124.91C960.288 124.91 959.273 125.097 958.34 125.47C957.43 125.843 956.625 126.38 955.925 127.08C955.225 127.78 954.677 128.608 954.28 129.565C953.907 130.522 953.72 131.583 953.72 132.75C953.72 133.893 953.907 134.955 954.28 135.935C954.677 136.892 955.213 137.72 955.89 138.42C956.59 139.12 957.407 139.657 958.34 140.03C959.273 140.403 960.288 140.59 961.385 140.59ZM1002.02 143.46C998.847 143.46 996.152 143.04 993.935 142.2C991.742 141.36 990.073 140.147 988.93 138.56C987.787 136.95 987.215 134.99 987.215 132.68C987.215 130.37 987.787 128.422 988.93 126.835C990.073 125.225 991.742 124 993.935 123.16C996.152 122.32 998.847 121.9 1002.02 121.9C1002.07 121.9 1002.19 121.9 1002.4 121.9C1002.64 121.9 1002.86 121.9 1003.07 121.9C1003.3 121.9 1003.43 121.9 1003.45 121.9C1006.6 121.9 1009.26 122.32 1011.43 123.16C1013.63 124 1015.28 125.225 1016.4 126.835C1017.52 128.445 1018.08 130.393 1018.08 132.68C1018.08 134.943 1017.52 136.892 1016.4 138.525C1015.31 140.135 1013.69 141.36 1011.54 142.2C1009.42 143.04 1006.81 143.46 1003.73 143.46C1003.66 143.46 1003.5 143.46 1003.24 143.46C1002.99 143.46 1002.73 143.46 1002.47 143.46C1002.24 143.46 1002.09 143.46 1002.02 143.46ZM1002.54 139.085C1002.61 139.085 1002.71 139.085 1002.82 139.085C1002.94 139.085 1003.02 139.085 1003.07 139.085C1005.22 139.085 1006.99 138.852 1008.39 138.385C1009.81 137.895 1010.87 137.183 1011.57 136.25C1012.27 135.293 1012.62 134.092 1012.62 132.645C1012.62 131.198 1012.26 130.008 1011.54 129.075C1010.82 128.142 1009.75 127.453 1008.35 127.01C1006.98 126.543 1005.24 126.31 1003.14 126.31C1003.09 126.31 1003 126.31 1002.86 126.31C1002.74 126.31 1002.64 126.31 1002.54 126.31C1000.33 126.31 998.497 126.532 997.05 126.975C995.603 127.418 994.518 128.118 993.795 129.075C993.072 130.008 992.71 131.21 992.71 132.68C992.71 134.15 993.095 135.363 993.865 136.32C994.635 137.253 995.743 137.953 997.19 138.42C998.66 138.863 1000.44 139.085 1002.54 139.085ZM1000.06 146.085V119.45H1005.27V146.085H1000.06ZM1022.33 145V120.5H1027.96V136.46L1039.65 120.5H1044.97V145H1039.37V129.075L1027.68 145H1022.33ZM1056.36 145V123.825L1057.65 125.12H1048.55V120.5H1069.8V125.12H1060.7L1061.96 123.825V145H1056.36ZM1090.16 120.5H1095.83V145H1090.16V120.5ZM1079.03 145H1073.36V120.5H1079.03V145ZM1090.58 134.955H1078.61V130.16H1090.58V134.955ZM1107.18 130.37H1118.98V134.78H1107.18V130.37ZM1107.6 140.45H1120.94V145H1101.97V120.5H1120.48V125.05H1107.6V140.45ZM1137.1 145.42C1135.21 145.42 1133.45 145.117 1131.82 144.51C1130.21 143.88 1128.81 142.993 1127.62 141.85C1126.43 140.707 1125.49 139.365 1124.82 137.825C1124.16 136.285 1123.84 134.593 1123.84 132.75C1123.84 130.907 1124.16 129.215 1124.82 127.675C1125.49 126.135 1126.43 124.793 1127.62 123.65C1128.83 122.507 1130.24 121.632 1131.85 121.025C1133.46 120.395 1135.22 120.08 1137.14 120.08C1139.26 120.08 1141.17 120.453 1142.88 121.2C1144.6 121.923 1146.05 122.997 1147.22 124.42L1143.58 127.78C1142.74 126.823 1141.8 126.112 1140.78 125.645C1139.75 125.155 1138.63 124.91 1137.42 124.91C1136.27 124.91 1135.22 125.097 1134.27 125.47C1133.31 125.843 1132.48 126.38 1131.78 127.08C1131.08 127.78 1130.53 128.608 1130.14 129.565C1129.76 130.522 1129.58 131.583 1129.58 132.75C1129.58 133.917 1129.76 134.978 1130.14 135.935C1130.53 136.892 1131.08 137.72 1131.78 138.42C1132.48 139.12 1133.31 139.657 1134.27 140.03C1135.22 140.403 1136.27 140.59 1137.42 140.59C1138.63 140.59 1139.75 140.357 1140.78 139.89C1141.8 139.4 1142.74 138.665 1143.58 137.685L1147.22 141.045C1146.05 142.468 1144.6 143.553 1142.88 144.3C1141.17 145.047 1139.25 145.42 1137.1 145.42ZM570.644 188.42C568.707 188.42 566.91 188.105 565.254 187.475C563.62 186.845 562.197 185.958 560.984 184.815C559.794 183.672 558.86 182.33 558.184 180.79C557.53 179.25 557.204 177.57 557.204 175.75C557.204 173.93 557.53 172.25 558.184 170.71C558.86 169.17 559.805 167.828 561.019 166.685C562.232 165.542 563.655 164.655 565.289 164.025C566.922 163.395 568.695 163.08 570.609 163.08C572.545 163.08 574.319 163.395 575.929 164.025C577.562 164.655 578.974 165.542 580.164 166.685C581.377 167.828 582.322 169.17 582.999 170.71C583.675 172.227 584.014 173.907 584.014 175.75C584.014 177.57 583.675 179.262 582.999 180.825C582.322 182.365 581.377 183.707 580.164 184.85C578.974 185.97 577.562 186.845 575.929 187.475C574.319 188.105 572.557 188.42 570.644 188.42ZM570.609 183.59C571.705 183.59 572.709 183.403 573.619 183.03C574.552 182.657 575.369 182.12 576.069 181.42C576.769 180.72 577.305 179.892 577.679 178.935C578.075 177.978 578.274 176.917 578.274 175.75C578.274 174.583 578.075 173.522 577.679 172.565C577.305 171.608 576.769 170.78 576.069 170.08C575.392 169.38 574.587 168.843 573.654 168.47C572.72 168.097 571.705 167.91 570.609 167.91C569.512 167.91 568.497 168.097 567.564 168.47C566.654 168.843 565.849 169.38 565.149 170.08C564.449 170.78 563.9 171.608 563.504 172.565C563.13 173.522 562.944 174.583 562.944 175.75C562.944 176.893 563.13 177.955 563.504 178.935C563.9 179.892 564.437 180.72 565.114 181.42C565.814 182.12 566.63 182.657 567.564 183.03C568.497 183.403 569.512 183.59 570.609 183.59ZM588.381 188V163.5H608.156V168.015H594.016V173.055H600.806C603.77 173.055 606.021 173.673 607.561 174.91C609.125 176.147 609.906 177.943 609.906 180.3C609.906 182.727 609.043 184.617 607.316 185.97C605.59 187.323 603.151 188 600.001 188H588.381ZM594.016 183.8H599.686C601.133 183.8 602.241 183.52 603.011 182.96C603.781 182.377 604.166 181.537 604.166 180.44C604.166 178.293 602.673 177.22 599.686 177.22H594.016V183.8ZM625.946 188.42C624.01 188.42 622.213 188.105 620.556 187.475C618.923 186.845 617.5 185.958 616.286 184.815C615.096 183.672 614.163 182.33 613.486 180.79C612.833 179.25 612.506 177.57 612.506 175.75C612.506 173.93 612.833 172.25 613.486 170.71C614.163 169.17 615.108 167.828 616.321 166.685C617.535 165.542 618.958 164.655 620.591 164.025C622.225 163.395 623.998 163.08 625.911 163.08C627.848 163.08 629.621 163.395 631.231 164.025C632.865 164.655 634.276 165.542 635.466 166.685C636.68 167.828 637.625 169.17 638.301 170.71C638.978 172.227 639.316 173.907 639.316 175.75C639.316 177.57 638.978 179.262 638.301 180.825C637.625 182.365 636.68 183.707 635.466 184.85C634.276 185.97 632.865 186.845 631.231 187.475C629.621 188.105 627.86 188.42 625.946 188.42ZM625.911 183.59C627.008 183.59 628.011 183.403 628.921 183.03C629.855 182.657 630.671 182.12 631.371 181.42C632.071 180.72 632.608 179.892 632.981 178.935C633.378 177.978 633.576 176.917 633.576 175.75C633.576 174.583 633.378 173.522 632.981 172.565C632.608 171.608 632.071 170.78 631.371 170.08C630.695 169.38 629.89 168.843 628.956 168.47C628.023 168.097 627.008 167.91 625.911 167.91C624.815 167.91 623.8 168.097 622.866 168.47C621.956 168.843 621.151 169.38 620.451 170.08C619.751 170.78 619.203 171.608 618.806 172.565C618.433 173.522 618.246 174.583 618.246 175.75C618.246 176.893 618.433 177.955 618.806 178.935C619.203 179.892 619.74 180.72 620.416 181.42C621.116 182.12 621.933 182.657 622.866 183.03C623.8 183.403 624.815 183.59 625.911 183.59ZM643.684 188V163.5H654.289C656.482 163.5 658.372 163.862 659.959 164.585C661.546 165.285 662.771 166.3 663.634 167.63C664.497 168.96 664.929 170.547 664.929 172.39C664.929 174.21 664.497 175.785 663.634 177.115C662.771 178.445 661.546 179.472 659.959 180.195C658.372 180.895 656.482 181.245 654.289 181.245H646.834L649.354 178.69V188H643.684ZM649.354 179.32L646.834 176.625H653.974C655.724 176.625 657.031 176.252 657.894 175.505C658.757 174.758 659.189 173.72 659.189 172.39C659.189 171.037 658.757 169.987 657.894 169.24C657.031 168.493 655.724 168.12 653.974 168.12H646.834L649.354 165.425V179.32ZM668.963 183.38C670.316 183.777 671.448 183.893 672.358 183.73C673.291 183.543 674.119 182.89 674.843 181.77L676.033 179.985L676.558 179.39L684.678 163.5H690.243L679.813 182.89C678.879 184.64 677.771 185.982 676.488 186.915C675.228 187.848 673.839 188.373 672.323 188.49C670.806 188.63 669.231 188.362 667.598 187.685L668.963 183.38ZM676.453 184.115L665.393 163.5H671.448L679.568 179.95L676.453 184.115ZM708.767 185.48V168.12H700.367L700.262 171.69C700.192 173.207 700.087 174.642 699.947 175.995C699.83 177.348 699.644 178.585 699.387 179.705C699.13 180.802 698.792 181.735 698.372 182.505C697.975 183.275 697.474 183.823 696.867 184.15L690.812 183.38C691.652 183.403 692.34 183.112 692.877 182.505C693.437 181.898 693.88 181.047 694.207 179.95C694.534 178.83 694.767 177.523 694.907 176.03C695.07 174.537 695.187 172.915 695.257 171.165L695.537 163.5H714.367V185.48H708.767ZM690.007 193.075L690.042 183.38H717.797V193.075H712.547V188H695.257V193.075H690.007ZM733.339 188.42C731.402 188.42 729.606 188.105 727.949 187.475C726.316 186.845 724.892 185.958 723.679 184.815C722.489 183.672 721.556 182.33 720.879 180.79C720.226 179.25 719.899 177.57 719.899 175.75C719.899 173.93 720.226 172.25 720.879 170.71C721.556 169.17 722.501 167.828 723.714 166.685C724.927 165.542 726.351 164.655 727.984 164.025C729.617 163.395 731.391 163.08 733.304 163.08C735.241 163.08 737.014 163.395 738.624 164.025C740.257 164.655 741.669 165.542 742.859 166.685C744.072 167.828 745.017 169.17 745.694 170.71C746.371 172.227 746.709 173.907 746.709 175.75C746.709 177.57 746.371 179.262 745.694 180.825C745.017 182.365 744.072 183.707 742.859 184.85C741.669 185.97 740.257 186.845 738.624 187.475C737.014 188.105 735.252 188.42 733.339 188.42ZM733.304 183.59C734.401 183.59 735.404 183.403 736.314 183.03C737.247 182.657 738.064 182.12 738.764 181.42C739.464 180.72 740.001 179.892 740.374 178.935C740.771 177.978 740.969 176.917 740.969 175.75C740.969 174.583 740.771 173.522 740.374 172.565C740.001 171.608 739.464 170.78 738.764 170.08C738.087 169.38 737.282 168.843 736.349 168.47C735.416 168.097 734.401 167.91 733.304 167.91C732.207 167.91 731.192 168.097 730.259 168.47C729.349 168.843 728.544 169.38 727.844 170.08C727.144 170.78 726.596 171.608 726.199 172.565C725.826 173.522 725.639 174.583 725.639 175.75C725.639 176.893 725.826 177.955 726.199 178.935C726.596 179.892 727.132 180.72 727.809 181.42C728.509 182.12 729.326 182.657 730.259 183.03C731.192 183.403 732.207 183.59 733.304 183.59ZM751.077 188V163.5H762.487C765.333 163.5 767.55 164.048 769.137 165.145C770.723 166.242 771.517 167.805 771.517 169.835C771.517 171.842 770.77 173.405 769.277 174.525C767.783 175.622 765.8 176.17 763.327 176.17L763.992 174.7C766.745 174.7 768.88 175.248 770.397 176.345C771.913 177.442 772.672 179.028 772.672 181.105C772.672 183.252 771.855 184.943 770.222 186.18C768.612 187.393 766.255 188 763.152 188H751.077ZM756.712 183.8H762.942C764.248 183.8 765.24 183.543 765.917 183.03C766.593 182.517 766.932 181.723 766.932 180.65C766.932 179.623 766.593 178.865 765.917 178.375C765.24 177.862 764.248 177.605 762.942 177.605H756.712V183.8ZM756.712 173.65H761.997C763.233 173.65 764.167 173.405 764.797 172.915C765.427 172.402 765.742 171.655 765.742 170.675C765.742 169.695 765.427 168.96 764.797 168.47C764.167 167.957 763.233 167.7 761.997 167.7H756.712V173.65ZM774.391 188L785.311 163.5H790.911L801.866 188H795.916L786.956 166.37H789.196L780.201 188H774.391ZM779.851 182.75L781.356 178.445H793.956L795.496 182.75H779.851ZM821.915 163.5H827.585V188H821.915V163.5ZM810.785 188H805.115V163.5H810.785V188ZM822.335 177.955H810.365V173.16H822.335V177.955ZM833.723 188V163.5H839.358V179.46L851.048 163.5H856.368V188H850.768V172.075L839.078 188H833.723ZM876.433 188V180.265L877.833 181.49H871.113C868.99 181.49 867.158 181.14 865.618 180.44C864.078 179.74 862.9 178.725 862.083 177.395C861.267 176.065 860.858 174.478 860.858 172.635C860.858 170.722 861.29 169.088 862.153 167.735C863.04 166.358 864.277 165.308 865.863 164.585C867.45 163.862 869.317 163.5 871.463 163.5H882.033V188H876.433ZM860.928 188L867.018 179.215H872.758L866.913 188H860.928ZM876.433 178.445V166.65L877.833 168.12H871.603C869.993 168.12 868.757 168.493 867.893 169.24C867.053 169.987 866.633 171.095 866.633 172.565C866.633 173.988 867.042 175.085 867.858 175.855C868.675 176.625 869.877 177.01 871.463 177.01H877.833L876.433 178.445Z" fill="white"/>
</svg>
