<svg width="242" height="76" viewBox="0 0 242 76" fill="none" xmlns="http://www.w3.org/2000/svg">
<path d="M14.5832 65.0624H17.1873L18.229 60.8958H14.5832V58.8124C14.5832 57.7395 14.5832 56.7291 16.6665 56.7291H18.229V53.2291C17.8894 53.1843 16.6071 53.0833 15.253 53.0833C12.4248 53.0833 10.4165 54.8093 10.4165 57.9791V60.8958H7.2915V65.0624H10.4165V73.9166H14.5832V65.0624Z" fill="white"/>
<path d="M44.5706 53.0843C45.3308 53.0814 46.0909 53.089 46.8508 53.1072L47.0529 53.1145C47.2862 53.1228 47.5165 53.1332 47.7946 53.1457C48.9029 53.1978 49.6592 53.3728 50.3227 53.6301C51.0102 53.8947 51.5894 54.253 52.1685 54.8322C52.6981 55.3526 53.1079 55.9822 53.3696 56.677C53.6269 57.3405 53.8019 58.0978 53.854 59.2062C53.8665 59.4832 53.8769 59.7145 53.8852 59.9478L53.8915 60.1499C53.91 60.9095 53.9179 61.6693 53.9154 62.4291L53.9165 63.2062V64.5707C53.919 65.3309 53.911 66.091 53.8925 66.851L53.8862 67.053C53.8779 67.2864 53.8675 67.5166 53.855 67.7947C53.8029 68.903 53.6258 69.6593 53.3696 70.3228C53.1088 71.0184 52.6988 71.6485 52.1685 72.1687C51.6477 72.6982 51.0178 73.108 50.3227 73.3697C49.6592 73.627 48.9029 73.802 47.7946 73.8541C47.5165 73.8666 47.2862 73.877 47.0529 73.8853L46.8508 73.8916C46.0909 73.9101 45.3308 73.9181 44.5706 73.9155L43.7935 73.9166H42.43C41.6699 73.9192 40.9097 73.9112 40.1498 73.8926L39.9477 73.8864C39.7004 73.8774 39.4532 73.867 39.206 73.8551C38.0977 73.803 37.3415 73.626 36.6769 73.3697C35.9817 73.1086 35.3521 72.6987 34.8321 72.1687C34.3019 71.6481 33.8917 71.0182 33.63 70.3228C33.3727 69.6593 33.1977 68.903 33.1456 67.7947C33.134 67.5475 33.1236 67.3003 33.1144 67.053L33.1092 66.851C33.09 66.091 33.0813 65.3309 33.0831 64.5707V62.4291C33.0802 61.6693 33.0879 60.9095 33.106 60.1499L33.1133 59.9478C33.1217 59.7145 33.1321 59.4832 33.1446 59.2062C33.1967 58.0968 33.3717 57.3416 33.629 56.677C33.8908 55.9818 34.3018 55.3525 34.8331 54.8332C35.3528 54.3028 35.982 53.8922 36.6769 53.6301C37.3415 53.3728 38.0967 53.1978 39.206 53.1457L39.9477 53.1145L40.1498 53.1093C40.9094 53.0901 41.6691 53.0814 42.429 53.0832L44.5706 53.0843ZM43.4998 58.2926C42.8097 58.2829 42.1245 58.4104 41.4841 58.6677C40.8437 58.925 40.2609 59.3071 39.7694 59.7916C39.278 60.2762 38.8877 60.8536 38.6213 61.4903C38.355 62.127 38.2178 62.8103 38.2178 63.5004C38.2178 64.1906 38.355 64.8739 38.6213 65.5106C38.8877 66.1473 39.278 66.7247 39.7694 67.2092C40.2609 67.6938 40.8437 68.0758 41.4841 68.3332C42.1245 68.5905 42.8097 68.718 43.4998 68.7082C44.8811 68.7082 46.2059 68.1595 47.1826 67.1828C48.1594 66.206 48.7081 64.8813 48.7081 63.4999C48.7081 62.1186 48.1594 60.7938 47.1826 59.8171C46.2059 58.8403 44.8811 58.2926 43.4998 58.2926ZM43.4998 60.376C43.9149 60.3683 44.3274 60.4435 44.7131 60.597C45.0989 60.7506 45.4501 60.9794 45.7464 61.2703C46.0427 61.5611 46.2781 61.9081 46.4388 62.2909C46.5995 62.6737 46.6823 63.0847 46.6824 63.4999C46.6824 63.9151 46.5998 64.3261 46.4392 64.709C46.2786 65.0919 46.0434 65.4389 45.7472 65.7298C45.451 66.0208 45.0998 66.2498 44.7141 66.4035C44.3284 66.5571 43.9159 66.6324 43.5008 66.6249C42.672 66.6249 41.8772 66.2957 41.2911 65.7096C40.7051 65.1236 40.3758 64.3287 40.3758 63.4999C40.3758 62.6711 40.7051 61.8763 41.2911 61.2902C41.8772 60.7042 42.672 60.3749 43.5008 60.3749L43.4998 60.376ZM48.9685 56.7301C48.6325 56.7436 48.3147 56.8865 48.0817 57.1291C47.8487 57.3716 47.7185 57.6948 47.7185 58.0312C47.7185 58.3675 47.8487 58.6908 48.0817 58.9333C48.3147 59.1758 48.6325 59.3188 48.9685 59.3322C49.3139 59.3322 49.6451 59.195 49.8892 58.9508C50.1334 58.7066 50.2706 58.3755 50.2706 58.0301C50.2706 57.6848 50.1334 57.3536 49.8892 57.1094C49.6451 56.8652 49.3139 56.728 48.9685 56.728V56.7301Z" fill="white"/>
<g clip-path="url(#clip0_1_262)">
<path d="M74.5797 54.1235H74.7188C76.0031 54.1282 82.5109 54.1751 84.2656 54.647C84.7961 54.791 85.2795 55.0717 85.6674 55.461C86.0554 55.8504 86.3344 56.3348 86.4766 56.8657C86.6344 57.4595 86.7453 58.2454 86.8203 59.0563L86.8359 59.2188L86.8703 59.6251L86.8828 59.7876C86.9844 61.2157 86.9969 62.5532 86.9984 62.8454V62.9626C86.9969 63.2657 86.9828 64.6938 86.8703 66.1813L86.8578 66.3454L86.8438 66.5079C86.7656 67.4017 86.65 68.2892 86.4766 68.9423C86.3349 69.4735 86.056 69.958 85.6679 70.3475C85.2799 70.7369 84.7963 71.0175 84.2656 71.161C82.4531 71.6485 75.5641 71.6829 74.6094 71.6845H74.3875C73.9047 71.6845 71.9078 71.6751 69.8141 71.6032L69.5484 71.5938L69.4125 71.5876L69.1453 71.5767L68.8781 71.5657C67.1437 71.4892 65.4922 71.3657 64.7313 71.1595C64.2008 71.016 63.7173 70.7357 63.3293 70.3466C62.9412 69.9574 62.6623 69.4732 62.5203 68.9423C62.3469 68.2907 62.2313 67.4017 62.1531 66.5079L62.1406 66.3438L62.1281 66.1813C62.051 65.1226 62.0083 64.0616 62 63.0001L62 62.8079C62.0031 62.472 62.0156 61.311 62.1 60.0298L62.1109 59.8688L62.1156 59.7876L62.1281 59.6251L62.1625 59.2188L62.1781 59.0563C62.2531 58.2454 62.3641 57.4579 62.5219 56.8657C62.6636 56.3345 62.9424 55.85 63.3305 55.4605C63.7185 55.0711 64.2021 54.7906 64.7328 54.647C65.4937 54.4438 67.1453 54.3188 68.8797 54.2407L69.1453 54.2298L69.4141 54.2204L69.5484 54.2157L69.8156 54.2048C71.3027 54.1569 72.7903 54.1304 74.2781 54.1251H74.5797V54.1235ZM72 59.1392V66.6673L78.4953 62.9048L72 59.1392Z" fill="white"/>
</g>
<rect width="175" height="40" transform="translate(0 3)" fill="white"/>
<path d="M18.712 22.312H24.104V24.328H18.712V22.312ZM18.904 26.92H25V29H16.328V17.8H24.792V19.88H18.904V26.92ZM31.0976 25.496V23.496H35.6256V25.496H31.0976ZM42.2968 29V17.8H44.4408L49.2088 25.704H48.0728L52.7608 17.8H54.8888L54.9208 29H52.4888L52.4728 21.528H52.9208L49.1768 27.816H48.0088L44.1848 21.528H44.7288V29H42.2968ZM56.106 29L61.098 17.8H63.658L68.666 29H65.946L61.85 19.112H62.874L58.762 29H56.106ZM58.602 26.6L59.29 24.632H65.05L65.754 26.6H58.602ZM69.828 29V17.8H72.42V29H69.828ZM75.078 29V17.8H77.67V26.888H83.286V29H75.078Z" fill="black" fill-opacity="0.62"/>
<rect x="183" width="59" height="44" fill="#FFF500"/>
<path d="M200 11V19.5L215 22L200 24.5V33L226 22L200 11Z" fill="black"/>
<defs>
<clipPath id="clip0_1_262">
<rect width="25" height="25" fill="white" transform="translate(62 51)"/>
</clipPath>
</defs>
</svg>
